<svg version="1.1" viewBox="0.0 0.0 256.0 256.0" fill="none" stroke="none" stroke-linecap="square" stroke-miterlimit="10" xmlns:xlink="http://www.w3.org/1999/xlink" xmlns="http://www.w3.org/2000/svg"><clipPath id="p.0"><path d="m0 0l256.0 0l0 256.0l-256.0 0l0 -256.0z" clip-rule="nonzero"/></clipPath><g clip-path="url(#p.0)"><path fill="#000000" fill-opacity="0.0" d="m0 0l256.0 0l0 256.0l-256.0 0z" fill-rule="evenodd"/><path fill="#000000" fill-opacity="0.0" d="m93.01746 102.061676c-11.804909 0 -32.813503 16.156082 -25.041992 25.042c6.918419 7.9104996 22.326874 8.077675 31.404198 2.782158c8.191124 -4.7785416 5.2255707 -24.703178 -3.5800476 -28.223106" fill-rule="evenodd"/><path stroke="#000000" stroke-width="8.0" stroke-linejoin="round" stroke-linecap="butt" d="m93.01746 102.061676c-11.804909 0 -32.813503 16.156082 -25.041992 25.042c6.918419 7.9104996 22.326874 8.077675 31.404198 2.782158c8.191124 -4.7785416 5.2255707 -24.703178 -3.5800476 -28.223106" fill-rule="evenodd"/><path fill="#000000" fill-opacity="0.0" d="m135.15385 101.76378c-7.0807343 2.8341675 -7.8606186 16.63826 -3.1784668 22.65879c7.8345337 10.074028 25.950241 14.053749 37.364822 8.346458c6.308914 -3.1544495 11.926437 -11.915199 9.937012 -18.682411c-2.8094177 -9.556465 -16.46518 -12.361191 -26.233597 -14.309715" fill-rule="evenodd"/><path stroke="#000000" stroke-width="8.0" stroke-linejoin="round" stroke-linecap="butt" d="m135.15385 101.76378c-7.0807343 2.8341675 -7.8606186 16.63826 -3.1784668 22.65879c7.8345337 10.074028 25.950241 14.053749 37.364822 8.346458c6.308914 -3.1544495 11.926437 -11.915199 9.937012 -18.682411c-2.8094177 -9.556465 -16.46518 -12.361191 -26.233597 -14.309715" fill-rule="evenodd"/></g></svg>