<svg version="1.1" viewBox="0.0 0.0 256.0 256.0" fill="none" stroke="none" stroke-linecap="square" stroke-miterlimit="10" xmlns:xlink="http://www.w3.org/1999/xlink" xmlns="http://www.w3.org/2000/svg"><clipPath id="p.0"><path d="m0 0l256.0 0l0 256.0l-256.0 0l0 -256.0z" clip-rule="nonzero"/></clipPath><g clip-path="url(#p.0)"><path fill="#000000" fill-opacity="0.0" d="m0 0l256.0 0l0 256.0l-256.0 0z" fill-rule="evenodd"/><path fill="#000000" fill-opacity="0.0" d="m111.75151 98.18427c-6.3174515 -2.368393 -13.043404 -9.7742 -19.078735 -6.7585297c-5.2637405 2.6301346 -5.018509 12.228355 -2.385826 17.490814c4.4812393 8.957558 19.026344 20.429909 26.632545 13.9133835c4.7558594 -4.0745316 1.2341537 -13.311661 -1.9868774 -18.682411" fill-rule="evenodd"/><path stroke="#000000" stroke-width="8.0" stroke-linejoin="round" stroke-linecap="butt" d="m111.75151 98.18427c-6.3174515 -2.368393 -13.043404 -9.7742 -19.078735 -6.7585297c-5.2637405 2.6301346 -5.018509 12.228355 -2.385826 17.490814c4.4812393 8.957558 19.026344 20.429909 26.632545 13.9133835c4.7558594 -4.0745316 1.2341537 -13.311661 -1.9868774 -18.682411" fill-rule="evenodd"/><path fill="#000000" fill-opacity="0.0" d="m139.13141 107.13209c-0.7671356 5.38517 -4.2979126 14.389267 0.7952728 16.299217c9.301437 3.488037 23.45346 3.1728668 29.417328 -4.771652c5.573715 -7.42482 9.152634 -23.050148 1.1916046 -27.826775c-5.506836 -3.3040924 -13.3498535 2.6126862 -17.887146 7.1574783" fill-rule="evenodd"/><path stroke="#000000" stroke-width="8.0" stroke-linejoin="round" stroke-linecap="butt" d="m139.13141 107.13209c-0.7671356 5.38517 -4.2979126 14.389267 0.7952728 16.299217c9.301437 3.488037 23.45346 3.1728668 29.417328 -4.771652c5.573715 -7.42482 9.152634 -23.050148 1.1916046 -27.826775c-5.506836 -3.3040924 -13.3498535 2.6126862 -17.887146 7.1574783" fill-rule="evenodd"/><path fill="#000000" fill-opacity="0.0" d="m86.30855 102.16156c-14.741241 -2.9534454 -27.339481 -21.421516 -41.737534 -17.09449c-9.418137 2.8304138 -7.154854 18.787788 -7.154854 28.622047" fill-rule="evenodd"/><path stroke="#000000" stroke-width="8.0" stroke-linejoin="round" stroke-linecap="butt" d="m86.30855 102.16156c-14.741241 -2.9534454 -27.339481 -21.421516 -41.737534 -17.09449c-9.418137 2.8304138 -7.154854 18.787788 -7.154854 28.622047" fill-rule="evenodd"/><path fill="#000000" fill-opacity="0.0" d="m178.08661 103.35516c11.767899 -3.3606644 22.888397 -15.922791 34.58531 -12.32283c5.4144897 1.66642 5.2836456 11.436073 3.1784668 16.695534" fill-rule="evenodd"/><path stroke="#000000" stroke-width="8.0" stroke-linejoin="round" stroke-linecap="butt" d="m178.08661 103.35516c11.767899 -3.3606644 22.888397 -15.922791 34.58531 -12.32283c5.4144897 1.66642 5.2836456 11.436073 3.1784668 16.695534" fill-rule="evenodd"/><path fill="#000000" fill-opacity="0.0" d="m114.08662 110.114136c7.004959 -1.1713486 14.474602 0.5392761 21.068245 3.1784744" fill-rule="evenodd"/><path stroke="#000000" stroke-width="8.0" stroke-linejoin="round" stroke-linecap="butt" d="m114.08662 110.114136c7.004959 -1.1713486 14.474602 0.5392761 21.068245 3.1784744" fill-rule="evenodd"/></g></svg>