<svg version="1.1" viewBox="0.0 0.0 256.0 256.0" fill="none" stroke="none" stroke-linecap="square" stroke-miterlimit="10" xmlns:xlink="http://www.w3.org/1999/xlink" xmlns="http://www.w3.org/2000/svg"><clipPath id="p.0"><path d="m0 0l256.0 0l0 256.0l-256.0 0l0 -256.0z" clip-rule="nonzero"/></clipPath><g clip-path="url(#p.0)"><path fill="#000000" fill-opacity="0.0" d="m0 0l256.0 0l0 256.0l-256.0 0z" fill-rule="evenodd"/><path fill="#000000" fill-opacity="0.0" d="m66.485825 52.816273c-8.318722 31.60271 -15.507393 63.61523 -19.884514 96.0c-2.3304977 17.242538 -9.612377 38.123245 0.6220474 52.19423c2.984787 4.1036835 10.161156 -0.35487366 15.223099 0c13.552116 0.95007324 27.145248 1.2345581 40.69816 2.173233c20.699852 1.4336548 41.409508 2.7645721 62.136482 3.72966c8.493439 0.39546204 18.792053 6.494751 25.477692 1.2414703c18.736588 -14.722412 9.629929 -47.005905 9.629929 -70.834656c0 -16.051613 0 -32.103233 0 -48.154854c0 -6.2169266 3.5794678 -14.058113 -0.62205505 -18.640419c-10.126114 -11.043846 -29.555344 -5.0140457 -44.42781 -6.8346443c-28.866364 -3.5336418 -57.595337 -9.942257 -86.67717 -9.942257" fill-rule="evenodd"/><path stroke="#000000" stroke-width="8.0" stroke-linejoin="round" stroke-linecap="butt" d="m66.485825 52.816273c-8.318722 31.60271 -15.507393 63.61523 -19.884514 96.0c-2.3304977 17.242538 -9.612377 38.123245 0.6220474 52.19423c2.984787 4.1036835 10.161156 -0.35487366 15.223099 0c13.552116 0.95007324 27.145248 1.2345581 40.69816 2.173233c20.699852 1.4336548 41.409508 2.7645721 62.136482 3.72966c8.493439 0.39546204 18.792053 6.494751 25.477692 1.2414703c18.736588 -14.722412 9.629929 -47.005905 9.629929 -70.834656c0 -16.051613 0 -32.103233 0 -48.154854c0 -6.2169266 3.5794678 -14.058113 -0.62205505 -18.640419c-10.126114 -11.043846 -29.555344 -5.0140457 -44.42781 -6.8346443c-28.866364 -3.5336418 -57.595337 -9.942257 -86.67717 -9.942257" fill-rule="evenodd"/></g></svg>