<svg version="1.1" viewBox="0.0 0.0 256.0 256.0" fill="none" stroke="none" stroke-linecap="square" stroke-miterlimit="10" xmlns:xlink="http://www.w3.org/1999/xlink" xmlns="http://www.w3.org/2000/svg"><clipPath id="p.0"><path d="m0 0l256.0 0l0 256.0l-256.0 0l0 -256.0z" clip-rule="nonzero"/></clipPath><g clip-path="url(#p.0)"><path fill="#000000" fill-opacity="0.0" d="m0 0l256.0 0l0 256.0l-256.0 0z" fill-rule="evenodd"/><path fill="#000000" fill-opacity="0.0" d="m128.7945 71.5538c-24.246819 0 -54.521637 9.24408 -65.98688 30.608925c-14.827843 27.630867 4.1682243 75.01029 32.5958 88.24673c23.627747 11.001526 64.22036 -0.22634888 74.33596 -24.24672c13.560883 -32.201508 -10.097015 -82.819214 -42.53543 -95.803154" fill-rule="evenodd"/><path stroke="#000000" stroke-width="8.0" stroke-linejoin="round" stroke-linecap="butt" d="m128.7945 71.5538c-24.246819 0 -54.521637 9.24408 -65.98688 30.608925c-14.827843 27.630867 4.1682243 75.01029 32.5958 88.24673c23.627747 11.001526 64.22036 -0.22634888 74.33596 -24.24672c13.560883 -32.201508 -10.097015 -82.819214 -42.53543 -95.803154" fill-rule="evenodd"/></g></svg>