<svg version="1.1" viewBox="0.0 0.0 256.0 256.0" fill="none" stroke="none" stroke-linecap="square" stroke-miterlimit="10" xmlns:xlink="http://www.w3.org/1999/xlink" xmlns="http://www.w3.org/2000/svg"><clipPath id="p.0"><path d="m0 0l256.0 0l0 256.0l-256.0 0l0 -256.0z" clip-rule="nonzero"/></clipPath><g clip-path="url(#p.0)"><path fill="#000000" fill-opacity="0.0" d="m0 0l256.0 0l0 256.0l-256.0 0z" fill-rule="evenodd"/><path fill="#000000" fill-opacity="0.0" d="m160.72925 175.64197c12.683517 -20.665573 20.64154 -51.304375 8.429749 -72.25215c-15.79335 -27.091476 -66.11167 -35.685303 -92.26354 -18.380455c-21.736282 14.383026 -33.40076 54.8534 -18.219658 76.04c20.351639 28.402542 75.86856 34.71704 103.903305 13.861679" fill-rule="evenodd"/><path stroke="#980000" stroke-width="8.0" stroke-linejoin="round" stroke-linecap="butt" d="m160.72925 175.64197c12.683517 -20.665573 20.64154 -51.304375 8.429749 -72.25215c-15.79335 -27.091476 -66.11167 -35.685303 -92.26354 -18.380455c-21.736282 14.383026 -33.40076 54.8534 -18.219658 76.04c20.351639 28.402542 75.86856 34.71704 103.903305 13.861679" fill-rule="evenodd"/></g></svg>