<svg version="1.1" viewBox="0.0 0.0 256.0 256.0" fill="none" stroke="none" stroke-linecap="square" stroke-miterlimit="10" xmlns:xlink="http://www.w3.org/1999/xlink" xmlns="http://www.w3.org/2000/svg"><clipPath id="p.0"><path d="m0 0l256.0 0l0 256.0l-256.0 0l0 -256.0z" clip-rule="nonzero"/></clipPath><g clip-path="url(#p.0)"><path fill="#000000" fill-opacity="0.0" d="m0 0l256.0 0l0 256.0l-256.0 0z" fill-rule="evenodd"/><path fill="#000000" fill-opacity="0.0" d="m91.826775 174.50919c17.915894 13.439392 47.627113 9.732712 67.178474 -1.1916046" fill-rule="evenodd"/><path stroke="#000000" stroke-width="8.0" stroke-linejoin="round" stroke-linecap="butt" d="m91.826775 174.50919c17.915894 13.439392 47.627113 9.732712 67.178474 -1.1916046" fill-rule="evenodd"/><path fill="#000000" fill-opacity="0.0" d="m102.55905 177.69029c0 -1.767868 0.40168762 -3.5864105 1.1916046 -5.167984" fill-rule="evenodd"/><path stroke="#000000" stroke-width="8.0" stroke-linejoin="round" stroke-linecap="butt" d="m102.55905 177.69029c0 -1.767868 0.40168762 -3.5864105 1.1916046 -5.167984" fill-rule="evenodd"/><path fill="#000000" fill-opacity="0.0" d="m130.78215 180.47244c-0.85398865 -1.4239655 -1.6426086 -2.887909 -2.3858185 -4.372711" fill-rule="evenodd"/><path stroke="#000000" stroke-width="8.0" stroke-linejoin="round" stroke-linecap="butt" d="m130.78215 180.47244c-0.85398865 -1.4239655 -1.6426086 -2.887909 -2.3858185 -4.372711" fill-rule="evenodd"/><path fill="#000000" fill-opacity="0.0" d="m149.46457 176.49606c-2.2494965 -1.3491058 -3.9250488 -3.5165863 -5.5643005 -5.5643005" fill-rule="evenodd"/><path stroke="#000000" stroke-width="8.0" stroke-linejoin="round" stroke-linecap="butt" d="m149.46457 176.49606c-2.2494965 -1.3491058 -3.9250488 -3.5165863 -5.5643005 -5.5643005" fill-rule="evenodd"/><path fill="#000000" fill-opacity="0.0" d="m113.291336 181.26772c1.1618652 -2.9027252 3.6103363 -5.110321 5.564308 -7.551178" fill-rule="evenodd"/><path stroke="#000000" stroke-width="8.0" stroke-linejoin="round" stroke-linecap="butt" d="m113.291336 181.26772c1.1618652 -2.9027252 3.6103363 -5.110321 5.564308 -7.551178" fill-rule="evenodd"/></g></svg>