<svg version="1.1" viewBox="0.0 0.0 256.0 256.0" fill="none" stroke="none" stroke-linecap="square" stroke-miterlimit="10" xmlns:xlink="http://www.w3.org/1999/xlink" xmlns="http://www.w3.org/2000/svg"><clipPath id="p.0"><path d="m0 0l256.0 0l0 256.0l-256.0 0l0 -256.0z" clip-rule="nonzero"/></clipPath><g clip-path="url(#p.0)"><path fill="#000000" fill-opacity="0.0" d="m0 0l256.0 0l0 256.0l-256.0 0z" fill-rule="evenodd"/><path fill="#000000" fill-opacity="0.0" d="m68.34908 169.94226c4.6027985 10.123047 17.2247 18.972687 28.272964 17.708664c6.5112915 -0.7449646 11.492378 -14.128281 16.776901 -10.251968c4.7090683 3.454193 4.761673 13.295792 10.561684 13.979004c5.8768005 0.6922455 9.69252 -6.8444824 14.913376 -9.629929c5.1917114 -2.7698822 9.680832 9.005127 15.532822 8.388458c7.705139 -0.8119812 11.241394 -11.208466 14.291336 -18.330719" fill-rule="evenodd"/><path stroke="#000000" stroke-width="8.0" stroke-linejoin="round" stroke-linecap="butt" d="m68.34908 169.94226c4.6027985 10.123047 17.2247 18.972687 28.272964 17.708664c6.5112915 -0.7449646 11.492378 -14.128281 16.776901 -10.251968c4.7090683 3.454193 4.761673 13.295792 10.561684 13.979004c5.8768005 0.6922455 9.69252 -6.8444824 14.913376 -9.629929c5.1917114 -2.7698822 9.680832 9.005127 15.532822 8.388458c7.705139 -0.8119812 11.241394 -11.208466 14.291336 -18.330719" fill-rule="evenodd"/></g></svg>