
    <svg width="256" height="256" viewBox="0 0 256 256" fill="none" xmlns="http://www.w3.org/2000/svg">
        <clipPath id="p.0"><path d="m0 0l256.0 0l0 256.0l-256.0 0l0 -256.0z" clip-rule="nonzero"/></clipPath><g clip-path="url(#p.0)"><path fill="#000000" fill-opacity="0.0" d="m0 0l256.0 0l0 256.0l-256.0 0z" fill-rule="evenodd"/><path fill="#ff9900" fill-opacity="0.3855" d="m35.107613 65.244095l97.22834 0l0 62.456696l-97.22834 0z" fill-rule="evenodd"/></g>
        <clipPath id="p.0"><path d="m0 0l256.0 0l0 256.0l-256.0 0l0 -256.0z" clip-rule="nonzero"/></clipPath><g clip-path="url(#p.0)"><path fill="#000000" fill-opacity="0.0" d="m0 0l256.0 0l0 256.0l-256.0 0z" fill-rule="evenodd"/><path fill="#000000" fill-opacity="0.0" d="m93.01746 102.061676c-11.804909 0 -32.813503 16.156082 -25.041992 25.042c6.918419 7.9104996 22.326874 8.077675 31.404198 2.782158c8.191124 -4.7785416 5.2255707 -24.703178 -3.5800476 -28.223106" fill-rule="evenodd"/><path stroke="#000000" stroke-width="8.0" stroke-linejoin="round" stroke-linecap="butt" d="m93.01746 102.061676c-11.804909 0 -32.813503 16.156082 -25.041992 25.042c6.918419 7.9104996 22.326874 8.077675 31.404198 2.782158c8.191124 -4.7785416 5.2255707 -24.703178 -3.5800476 -28.223106" fill-rule="evenodd"/><path fill="#000000" fill-opacity="0.0" d="m135.15385 101.76378c-7.0807343 2.8341675 -7.8606186 16.63826 -3.1784668 22.65879c7.8345337 10.074028 25.950241 14.053749 37.364822 8.346458c6.308914 -3.1544495 11.926437 -11.915199 9.937012 -18.682411c-2.8094177 -9.556465 -16.46518 -12.361191 -26.233597 -14.309715" fill-rule="evenodd"/><path stroke="#000000" stroke-width="8.0" stroke-linejoin="round" stroke-linecap="butt" d="m135.15385 101.76378c-7.0807343 2.8341675 -7.8606186 16.63826 -3.1784668 22.65879c7.8345337 10.074028 25.950241 14.053749 37.364822 8.346458c6.308914 -3.1544495 11.926437 -11.915199 9.937012 -18.682411c-2.8094177 -9.556465 -16.46518 -12.361191 -26.233597 -14.309715" fill-rule="evenodd"/></g>
        <clipPath id="p.0"><path d="m0 0l256.0 0l0 256.0l-256.0 0l0 -256.0z" clip-rule="nonzero"/></clipPath><g clip-path="url(#p.0)"><path fill="#000000" fill-opacity="0.0" d="m0 0l256.0 0l0 256.0l-256.0 0z" fill-rule="evenodd"/><path fill="#000000" fill-opacity="0.0" d="m66.485825 52.816273c-8.318722 31.60271 -15.507393 63.61523 -19.884514 96.0c-2.3304977 17.242538 -9.612377 38.123245 0.6220474 52.19423c2.984787 4.1036835 10.161156 -0.35487366 15.223099 0c13.552116 0.95007324 27.145248 1.2345581 40.69816 2.173233c20.699852 1.4336548 41.409508 2.7645721 62.136482 3.72966c8.493439 0.39546204 18.792053 6.494751 25.477692 1.2414703c18.736588 -14.722412 9.629929 -47.005905 9.629929 -70.834656c0 -16.051613 0 -32.103233 0 -48.154854c0 -6.2169266 3.5794678 -14.058113 -0.62205505 -18.640419c-10.126114 -11.043846 -29.555344 -5.0140457 -44.42781 -6.8346443c-28.866364 -3.5336418 -57.595337 -9.942257 -86.67717 -9.942257" fill-rule="evenodd"/><path stroke="#000000" stroke-width="8.0" stroke-linejoin="round" stroke-linecap="butt" d="m66.485825 52.816273c-8.318722 31.60271 -15.507393 63.61523 -19.884514 96.0c-2.3304977 17.242538 -9.612377 38.123245 0.6220474 52.19423c2.984787 4.1036835 10.161156 -0.35487366 15.223099 0c13.552116 0.95007324 27.145248 1.2345581 40.69816 2.173233c20.699852 1.4336548 41.409508 2.7645721 62.136482 3.72966c8.493439 0.39546204 18.792053 6.494751 25.477692 1.2414703c18.736588 -14.722412 9.629929 -47.005905 9.629929 -70.834656c0 -16.051613 0 -32.103233 0 -48.154854c0 -6.2169266 3.5794678 -14.058113 -0.62205505 -18.640419c-10.126114 -11.043846 -29.555344 -5.0140457 -44.42781 -6.8346443c-28.866364 -3.5336418 -57.595337 -9.942257 -86.67717 -9.942257" fill-rule="evenodd"/></g>
        <clipPath id="p.0"><path d="m0 0l256.0 0l0 256.0l-256.0 0l0 -256.0z" clip-rule="nonzero"/></clipPath><g clip-path="url(#p.0)"><path fill="#000000" fill-opacity="0.0" d="m0 0l256.0 0l0 256.0l-256.0 0z" fill-rule="evenodd"/><path fill="#000000" fill-opacity="0.0" d="m91.826775 174.50919c17.915894 13.439392 47.627113 9.732712 67.178474 -1.1916046" fill-rule="evenodd"/><path stroke="#000000" stroke-width="8.0" stroke-linejoin="round" stroke-linecap="butt" d="m91.826775 174.50919c17.915894 13.439392 47.627113 9.732712 67.178474 -1.1916046" fill-rule="evenodd"/></g>
    </svg>
