
    <svg width="256" height="256" viewBox="0 0 256 256" fill="none" xmlns="http://www.w3.org/2000/svg">
        <clipPath id="p.0"><path d="m0 0l256.0 0l0 256.0l-256.0 0l0 -256.0z" clip-rule="nonzero"/></clipPath><g clip-path="url(#p.0)"><path fill="#000000" fill-opacity="0.0" d="m0 0l256.0 0l0 256.0l-256.0 0z" fill-rule="evenodd"/><path fill="#980000" fill-opacity="0.419" d="m160.71391 74.87139l44.72441 0l0 137.95276l-44.72441 0z" fill-rule="evenodd"/></g>
        <clipPath id="p.0"><path d="m0 0l256.0 0l0 256.0l-256.0 0l0 -256.0z" clip-rule="nonzero"/></clipPath><g clip-path="url(#p.0)"><path fill="#000000" fill-opacity="0.0" d="m0 0l256.0 0l0 256.0l-256.0 0z" fill-rule="evenodd"/><path fill="#000000" fill-opacity="0.0" d="m111.75151 98.18427c-6.3174515 -2.368393 -13.043404 -9.7742 -19.078735 -6.7585297c-5.2637405 2.6301346 -5.018509 12.228355 -2.385826 17.490814c4.4812393 8.957558 19.026344 20.429909 26.632545 13.9133835c4.7558594 -4.0745316 1.2341537 -13.311661 -1.9868774 -18.682411" fill-rule="evenodd"/><path stroke="#bf9000" stroke-width="8.0" stroke-linejoin="round" stroke-linecap="butt" d="m111.75151 98.18427c-6.3174515 -2.368393 -13.043404 -9.7742 -19.078735 -6.7585297c-5.2637405 2.6301346 -5.018509 12.228355 -2.385826 17.490814c4.4812393 8.957558 19.026344 20.429909 26.632545 13.9133835c4.7558594 -4.0745316 1.2341537 -13.311661 -1.9868774 -18.682411" fill-rule="evenodd"/><path fill="#000000" fill-opacity="0.0" d="m139.13141 107.13209c-0.7671356 5.38517 -4.2979126 14.389267 0.7952728 16.299217c9.301437 3.488037 23.45346 3.1728668 29.417328 -4.771652c5.573715 -7.42482 9.152634 -23.050148 1.1916046 -27.826775c-5.506836 -3.3040924 -13.3498535 2.6126862 -17.887146 7.1574783" fill-rule="evenodd"/><path stroke="#bf9000" stroke-width="8.0" stroke-linejoin="round" stroke-linecap="butt" d="m139.13141 107.13209c-0.7671356 5.38517 -4.2979126 14.389267 0.7952728 16.299217c9.301437 3.488037 23.45346 3.1728668 29.417328 -4.771652c5.573715 -7.42482 9.152634 -23.050148 1.1916046 -27.826775c-5.506836 -3.3040924 -13.3498535 2.6126862 -17.887146 7.1574783" fill-rule="evenodd"/><path fill="#000000" fill-opacity="0.0" d="m86.30855 102.16156c-14.741241 -2.9534454 -27.339481 -21.421516 -41.737534 -17.09449c-9.418137 2.8304138 -7.154854 18.787788 -7.154854 28.622047" fill-rule="evenodd"/><path stroke="#bf9000" stroke-width="8.0" stroke-linejoin="round" stroke-linecap="butt" d="m86.30855 102.16156c-14.741241 -2.9534454 -27.339481 -21.421516 -41.737534 -17.09449c-9.418137 2.8304138 -7.154854 18.787788 -7.154854 28.622047" fill-rule="evenodd"/><path fill="#000000" fill-opacity="0.0" d="m178.08661 103.35516c11.767899 -3.3606644 22.888397 -15.922791 34.58531 -12.32283c5.4144897 1.66642 5.2836456 11.436073 3.1784668 16.695534" fill-rule="evenodd"/><path stroke="#bf9000" stroke-width="8.0" stroke-linejoin="round" stroke-linecap="butt" d="m178.08661 103.35516c11.767899 -3.3606644 22.888397 -15.922791 34.58531 -12.32283c5.4144897 1.66642 5.2836456 11.436073 3.1784668 16.695534" fill-rule="evenodd"/><path fill="#000000" fill-opacity="0.0" d="m114.08662 110.114136c7.004959 -1.1713486 14.474602 0.5392761 21.068245 3.1784744" fill-rule="evenodd"/><path stroke="#bf9000" stroke-width="8.0" stroke-linejoin="round" stroke-linecap="butt" d="m114.08662 110.114136c7.004959 -1.1713486 14.474602 0.5392761 21.068245 3.1784744" fill-rule="evenodd"/></g>
        <clipPath id="p.0"><path d="m0 0l256.0 0l0 256.0l-256.0 0l0 -256.0z" clip-rule="nonzero"/></clipPath><g clip-path="url(#p.0)"><path fill="#000000" fill-opacity="0.0" d="m0 0l256.0 0l0 256.0l-256.0 0z" fill-rule="evenodd"/><path fill="#000000" fill-opacity="0.0" d="m66.485825 52.816273c-8.318722 31.60271 -15.507393 63.61523 -19.884514 96.0c-2.3304977 17.242538 -9.612377 38.123245 0.6220474 52.19423c2.984787 4.1036835 10.161156 -0.35487366 15.223099 0c13.552116 0.95007324 27.145248 1.2345581 40.69816 2.173233c20.699852 1.4336548 41.409508 2.7645721 62.136482 3.72966c8.493439 0.39546204 18.792053 6.494751 25.477692 1.2414703c18.736588 -14.722412 9.629929 -47.005905 9.629929 -70.834656c0 -16.051613 0 -32.103233 0 -48.154854c0 -6.2169266 3.5794678 -14.058113 -0.62205505 -18.640419c-10.126114 -11.043846 -29.555344 -5.0140457 -44.42781 -6.8346443c-28.866364 -3.5336418 -57.595337 -9.942257 -86.67717 -9.942257" fill-rule="evenodd"/><path stroke="#000000" stroke-width="8.0" stroke-linejoin="round" stroke-linecap="butt" d="m66.485825 52.816273c-8.318722 31.60271 -15.507393 63.61523 -19.884514 96.0c-2.3304977 17.242538 -9.612377 38.123245 0.6220474 52.19423c2.984787 4.1036835 10.161156 -0.35487366 15.223099 0c13.552116 0.95007324 27.145248 1.2345581 40.69816 2.173233c20.699852 1.4336548 41.409508 2.7645721 62.136482 3.72966c8.493439 0.39546204 18.792053 6.494751 25.477692 1.2414703c18.736588 -14.722412 9.629929 -47.005905 9.629929 -70.834656c0 -16.051613 0 -32.103233 0 -48.154854c0 -6.2169266 3.5794678 -14.058113 -0.62205505 -18.640419c-10.126114 -11.043846 -29.555344 -5.0140457 -44.42781 -6.8346443c-28.866364 -3.5336418 -57.595337 -9.942257 -86.67717 -9.942257" fill-rule="evenodd"/></g>
        
    </svg>
