
    <svg width="256" height="256" viewBox="0 0 256 256" fill="none" xmlns="http://www.w3.org/2000/svg">
        <clipPath id="p.0"><path d="m0 0l256.0 0l0 256.0l-256.0 0l0 -256.0z" clip-rule="nonzero"/></clipPath><g clip-path="url(#p.0)"><path fill="#000000" fill-opacity="0.0" d="m0 0l256.0 0l0 256.0l-256.0 0z" fill-rule="evenodd"/><path fill="#980000" fill-opacity="0.419" d="m160.71391 74.87139l44.72441 0l0 137.95276l-44.72441 0z" fill-rule="evenodd"/></g>
        <clipPath id="p.0"><path d="m0 0l256.0 0l0 256.0l-256.0 0l0 -256.0z" clip-rule="nonzero"/></clipPath><g clip-path="url(#p.0)"><path fill="#000000" fill-opacity="0.0" d="m0 0l256.0 0l0 256.0l-256.0 0z" fill-rule="evenodd"/><path fill="#000000" fill-opacity="0.0" d="m93.01746 102.061676c-11.804909 0 -32.813503 16.156082 -25.041992 25.042c6.918419 7.9104996 22.326874 8.077675 31.404198 2.782158c8.191124 -4.7785416 5.2255707 -24.703178 -3.5800476 -28.223106" fill-rule="evenodd"/><path stroke="#000000" stroke-width="8.0" stroke-linejoin="round" stroke-linecap="butt" d="m93.01746 102.061676c-11.804909 0 -32.813503 16.156082 -25.041992 25.042c6.918419 7.9104996 22.326874 8.077675 31.404198 2.782158c8.191124 -4.7785416 5.2255707 -24.703178 -3.5800476 -28.223106" fill-rule="evenodd"/><path fill="#000000" fill-opacity="0.0" d="m135.15385 101.76378c-7.0807343 2.8341675 -7.8606186 16.63826 -3.1784668 22.65879c7.8345337 10.074028 25.950241 14.053749 37.364822 8.346458c6.308914 -3.1544495 11.926437 -11.915199 9.937012 -18.682411c-2.8094177 -9.556465 -16.46518 -12.361191 -26.233597 -14.309715" fill-rule="evenodd"/><path stroke="#000000" stroke-width="8.0" stroke-linejoin="round" stroke-linecap="butt" d="m135.15385 101.76378c-7.0807343 2.8341675 -7.8606186 16.63826 -3.1784668 22.65879c7.8345337 10.074028 25.950241 14.053749 37.364822 8.346458c6.308914 -3.1544495 11.926437 -11.915199 9.937012 -18.682411c-2.8094177 -9.556465 -16.46518 -12.361191 -26.233597 -14.309715" fill-rule="evenodd"/></g>
        <clipPath id="p.0"><path d="m0 0l256.0 0l0 256.0l-256.0 0l0 -256.0z" clip-rule="nonzero"/></clipPath><g clip-path="url(#p.0)"><path fill="#000000" fill-opacity="0.0" d="m0 0l256.0 0l0 256.0l-256.0 0z" fill-rule="evenodd"/><path fill="#000000" fill-opacity="0.0" d="m128.7945 71.5538c-24.246819 0 -54.521637 9.24408 -65.98688 30.608925c-14.827843 27.630867 4.1682243 75.01029 32.5958 88.24673c23.627747 11.001526 64.22036 -0.22634888 74.33596 -24.24672c13.560883 -32.201508 -10.097015 -82.819214 -42.53543 -95.803154" fill-rule="evenodd"/><path stroke="#000000" stroke-width="8.0" stroke-linejoin="round" stroke-linecap="butt" d="m128.7945 71.5538c-24.246819 0 -54.521637 9.24408 -65.98688 30.608925c-14.827843 27.630867 4.1682243 75.01029 32.5958 88.24673c23.627747 11.001526 64.22036 -0.22634888 74.33596 -24.24672c13.560883 -32.201508 -10.097015 -82.819214 -42.53543 -95.803154" fill-rule="evenodd"/></g>
        <clipPath id="p.0"><path d="m0 0l256.0 0l0 256.0l-256.0 0l0 -256.0z" clip-rule="nonzero"/></clipPath><g clip-path="url(#p.0)"><path fill="#000000" fill-opacity="0.0" d="m0 0l256.0 0l0 256.0l-256.0 0z" fill-rule="evenodd"/><path fill="#000000" fill-opacity="0.0" d="m68.34908 169.94226c4.6027985 10.123047 17.2247 18.972687 28.272964 17.708664c6.5112915 -0.7449646 11.492378 -14.128281 16.776901 -10.251968c4.7090683 3.454193 4.761673 13.295792 10.561684 13.979004c5.8768005 0.6922455 9.69252 -6.8444824 14.913376 -9.629929c5.1917114 -2.7698822 9.680832 9.005127 15.532822 8.388458c7.705139 -0.8119812 11.241394 -11.208466 14.291336 -18.330719" fill-rule="evenodd"/><path stroke="#000000" stroke-width="8.0" stroke-linejoin="round" stroke-linecap="butt" d="m68.34908 169.94226c4.6027985 10.123047 17.2247 18.972687 28.272964 17.708664c6.5112915 -0.7449646 11.492378 -14.128281 16.776901 -10.251968c4.7090683 3.454193 4.761673 13.295792 10.561684 13.979004c5.8768005 0.6922455 9.69252 -6.8444824 14.913376 -9.629929c5.1917114 -2.7698822 9.680832 9.005127 15.532822 8.388458c7.705139 -0.8119812 11.241394 -11.208466 14.291336 -18.330719" fill-rule="evenodd"/></g>
    </svg>
