
    <svg width="256" height="256" viewBox="0 0 256 256" fill="none" xmlns="http://www.w3.org/2000/svg">
        <clipPath id="p.0"><path d="m0 0l256.0 0l0 256.0l-256.0 0l0 -256.0z" clip-rule="nonzero"/></clipPath><g clip-path="url(#p.0)"><path fill="#000000" fill-opacity="0.0" d="m0 0l256.0 0l0 256.0l-256.0 0z" fill-rule="evenodd"/><path fill="#ff9900" fill-opacity="0.3855" d="m35.107613 65.244095l97.22834 0l0 62.456696l-97.22834 0z" fill-rule="evenodd"/></g>
        <clipPath id="p.0"><path d="m0 0l256.0 0l0 256.0l-256.0 0l0 -256.0z" clip-rule="nonzero"/></clipPath><g clip-path="url(#p.0)"><path fill="#000000" fill-opacity="0.0" d="m0 0l256.0 0l0 256.0l-256.0 0z" fill-rule="evenodd"/><path fill="#000000" fill-opacity="0.0" d="m93.01746 102.061676c-11.804909 0 -32.813503 16.156082 -25.041992 25.042c6.918419 7.9104996 22.326874 8.077675 31.404198 2.782158c8.191124 -4.7785416 5.2255707 -24.703178 -3.5800476 -28.223106" fill-rule="evenodd"/><path stroke="#000000" stroke-width="8.0" stroke-linejoin="round" stroke-linecap="butt" d="m93.01746 102.061676c-11.804909 0 -32.813503 16.156082 -25.041992 25.042c6.918419 7.9104996 22.326874 8.077675 31.404198 2.782158c8.191124 -4.7785416 5.2255707 -24.703178 -3.5800476 -28.223106" fill-rule="evenodd"/><path fill="#000000" fill-opacity="0.0" d="m135.15385 101.76378c-7.0807343 2.8341675 -7.8606186 16.63826 -3.1784668 22.65879c7.8345337 10.074028 25.950241 14.053749 37.364822 8.346458c6.308914 -3.1544495 11.926437 -11.915199 9.937012 -18.682411c-2.8094177 -9.556465 -16.46518 -12.361191 -26.233597 -14.309715" fill-rule="evenodd"/><path stroke="#000000" stroke-width="8.0" stroke-linejoin="round" stroke-linecap="butt" d="m135.15385 101.76378c-7.0807343 2.8341675 -7.8606186 16.63826 -3.1784668 22.65879c7.8345337 10.074028 25.950241 14.053749 37.364822 8.346458c6.308914 -3.1544495 11.926437 -11.915199 9.937012 -18.682411c-2.8094177 -9.556465 -16.46518 -12.361191 -26.233597 -14.309715" fill-rule="evenodd"/></g>
        <clipPath id="p.0"><path d="m0 0l256.0 0l0 256.0l-256.0 0l0 -256.0z" clip-rule="nonzero"/></clipPath><g clip-path="url(#p.0)"><path fill="#000000" fill-opacity="0.0" d="m0 0l256.0 0l0 256.0l-256.0 0z" fill-rule="evenodd"/><path fill="#000000" fill-opacity="0.0" d="m160.72925 175.64197c12.683517 -20.665573 20.64154 -51.304375 8.429749 -72.25215c-15.79335 -27.091476 -66.11167 -35.685303 -92.26354 -18.380455c-21.736282 14.383026 -33.40076 54.8534 -18.219658 76.04c20.351639 28.402542 75.86856 34.71704 103.903305 13.861679" fill-rule="evenodd"/><path stroke="#980000" stroke-width="8.0" stroke-linejoin="round" stroke-linecap="butt" d="m160.72925 175.64197c12.683517 -20.665573 20.64154 -51.304375 8.429749 -72.25215c-15.79335 -27.091476 -66.11167 -35.685303 -92.26354 -18.380455c-21.736282 14.383026 -33.40076 54.8534 -18.219658 76.04c20.351639 28.402542 75.86856 34.71704 103.903305 13.861679" fill-rule="evenodd"/></g>
        
    </svg>
